<svg xmlns="http://www.w3.org/2000/svg" width="14.656" height="17.53" viewBox="0 0 14.656 17.53">
  <defs>
    <style>
      .cls-1 {
        fill: #c5c5c5;
        fill-rule: evenodd;
      }
    </style>
  </defs>
  <path id="apple-icon.svg" class="cls-1" d="M747.851,3325.58a3.2,3.2,0,0,1-1.665-1.33,4.024,4.024,0,0,1-.727-2.35,3.737,3.737,0,0,1,.685-2.18,6.591,6.591,0,0,1,1.2-1.24,5.38,5.38,0,0,0-1.1-1.06,3.863,3.863,0,0,0-2.244-.68,5.72,5.72,0,0,0-1.823.36,5.276,5.276,0,0,1-1.507.35,6.606,6.606,0,0,1-1.454-.31,7.005,7.005,0,0,0-1.865-.32,3.645,3.645,0,0,0-2.993,1.52,6.245,6.245,0,0,0-1.191,3.94,10.758,10.758,0,0,0,1.549,5.3c1.043,1.81,2.087,2.73,3.172,2.73a3.9,3.9,0,0,0,1.391-.36,4.134,4.134,0,0,1,1.5-.35,4.739,4.739,0,0,1,1.591.34,4.909,4.909,0,0,0,1.476.34c0.895,0,1.8-.69,2.708-2.07A10.4,10.4,0,0,0,747.851,3325.58Zm-3.962-12.36c0-.08-0.011-0.14-0.011-0.21s-0.031-.14-0.052-0.23a4.187,4.187,0,0,0-2.635,1.56,4.772,4.772,0,0,0-.822,2.7,4.977,4.977,0,0,0,1.1-.18,2.989,2.989,0,0,0,1.138-.75,4.386,4.386,0,0,0,.98-1.46A4,4,0,0,0,743.889,3313.22Z" transform="translate(-733.188 -3312.78)"/>
</svg>
