<svg xmlns="http://www.w3.org/2000/svg" width="30.969" height="30.969" viewBox="0 0 30.969 30.969">
  <defs>
    <style>
      .cls-1 {
        fill: #fff;
        fill-rule: evenodd;
      }
    </style>
  </defs>
  <path id="logo.svg" class="cls-1" d="M254.244,42.308A15.489,15.489,0,1,0,269.734,57.8,15.506,15.506,0,0,0,254.244,42.308Zm0,28.584a13.1,13.1,0,1,1,13.1-13.1A13.111,13.111,0,0,1,254.244,70.892Zm0-19.056a5.96,5.96,0,1,0,5.961,5.96A5.966,5.966,0,0,0,254.244,51.836Zm0,9.528a3.568,3.568,0,1,1,3.568-3.568A3.572,3.572,0,0,1,254.244,61.364Z" transform="translate(-238.75 -42.313)"/>
</svg>
